<svg width="16" height="16" viewBox="0 0 16 16" fill="none" xmlns="http://www.w3.org/2000/svg">
<g id="Solid/close">
<path id="Vector" d="M7.99968 1.33334C6.68113 1.33334 5.3922 1.72434 4.29588 2.45688C3.19955 3.18942 2.34506 4.23061 1.84048 5.44879C1.3359 6.66696 1.20387 8.0074 1.46111 9.30061C1.71834 10.5938 2.35328 11.7817 3.28563 12.7141C4.21798 13.6464 5.40587 14.2813 6.69907 14.5386C7.99228 14.7958 9.33273 14.6638 10.5509 14.1592C11.7691 13.6546 12.8103 12.8001 13.5428 11.7038C14.2753 10.6075 14.6663 9.31855 14.6663 8.00001C14.6643 6.23254 13.9612 4.53806 12.7114 3.28827C11.4616 2.03848 9.76715 1.33543 7.99968 1.33334ZM10.5706 9.71455C10.6285 9.77046 10.6746 9.83734 10.7064 9.91128C10.7382 9.98522 10.7549 10.0647 10.7556 10.1452C10.7563 10.2257 10.741 10.3055 10.7105 10.38C10.68 10.4545 10.635 10.5221 10.5781 10.579C10.5212 10.6359 10.4535 10.6809 10.379 10.7114C10.3046 10.7419 10.2248 10.7572 10.1443 10.7565C10.0638 10.7558 9.98428 10.7391 9.91034 10.7073C9.8364 10.6756 9.76952 10.6294 9.71362 10.5715L7.99968 8.85698L6.28574 10.5715C6.17143 10.6819 6.01834 10.743 5.85943 10.7416C5.70053 10.7402 5.54852 10.6765 5.43615 10.5641C5.32378 10.4518 5.26004 10.2998 5.25866 10.1409C5.25728 9.98195 5.31837 9.82886 5.42877 9.71455L7.14271 8.00001L5.42877 6.28546C5.37088 6.22956 5.32471 6.16268 5.29295 6.08874C5.26119 6.0148 5.24447 5.93527 5.24377 5.8548C5.24307 5.77433 5.2584 5.69452 5.28888 5.62004C5.31935 5.54555 5.36435 5.47789 5.42126 5.42098C5.47816 5.36408 5.54583 5.31908 5.62031 5.2886C5.69479 5.25813 5.7746 5.24279 5.85507 5.24349C5.93554 5.24419 6.01507 5.26091 6.08901 5.29268C6.16295 5.32444 6.22983 5.37061 6.28574 5.42849L7.99968 7.14304L9.71362 5.42849C9.76952 5.37061 9.8364 5.32444 9.91034 5.29268C9.98428 5.26091 10.0638 5.24419 10.1443 5.24349C10.2248 5.24279 10.3046 5.25813 10.379 5.2886C10.4535 5.31908 10.5212 5.36408 10.5781 5.42098C10.635 5.47789 10.68 5.54555 10.7105 5.62004C10.741 5.69452 10.7563 5.77433 10.7556 5.8548C10.7549 5.93527 10.7382 6.0148 10.7064 6.08874C10.6746 6.16268 10.6285 6.22956 10.5706 6.28546L8.85665 8.00001L10.5706 9.71455Z" fill="white"/>
</g>
</svg>
